<?xml version="1.0" encoding="UTF-8" standalone="no"?>
<svg
   xmlns:dc="http://purl.org/dc/elements/1.1/"
   xmlns:cc="http://creativecommons.org/ns#"
   xmlns:rdf="http://www.w3.org/1999/02/22-rdf-syntax-ns#"
   xmlns:svg="http://www.w3.org/2000/svg"
   xmlns="http://www.w3.org/2000/svg"
   xmlns:sodipodi="http://sodipodi.sourceforge.net/DTD/sodipodi-0.dtd"
   xmlns:inkscape="http://www.inkscape.org/namespaces/inkscape"
   inkscape:version="1.0beta1 (fe3e306, 2019-09-17)"
   sodipodi:docname="qrcode_skorch.svg"
   id="svg4"
   version="1.1"
   class="pyqrcode"
   width="64.27832mm"
   height="64.27832mm">
  <metadata
     id="metadata10">
    <rdf:RDF>
      <cc:Work
         rdf:about="">
        <dc:format>image/svg+xml</dc:format>
        <dc:type
           rdf:resource="http://purl.org/dc/dcmitype/StillImage" />
        <dc:title></dc:title>
      </cc:Work>
    </rdf:RDF>
  </metadata>
  <defs
     id="defs8" />
  <sodipodi:namedview
     inkscape:document-rotation="0"
     fit-margin-bottom="0"
     fit-margin-right="0"
     fit-margin-left="0"
     fit-margin-top="0"
     units="mm"
     inkscape:current-layer="svg4"
     inkscape:window-maximized="0"
     inkscape:window-y="23"
     inkscape:window-x="0"
     inkscape:cy="133.67656"
     inkscape:cx="46.546021"
     inkscape:zoom="1.979899"
     inkscape:snap-global="false"
     showgrid="false"
     id="namedview6"
     inkscape:window-height="907"
     inkscape:window-width="1600"
     inkscape:pageshadow="2"
     inkscape:pageopacity="0"
     guidetolerance="10"
     gridtolerance="10"
     objecttolerance="10"
     borderopacity="1"
     bordercolor="#666666"
     pagecolor="#ffffff" />
  <rect
     y="0"
     x="0"
     height="242.94168"
     width="242.94168"
     id="rect684"
     style="fill:#ffffff;fill-opacity:1;fill-rule:evenodd" />
  <g
     transform="matrix(1.6001614,0,0,1.6001614,-117.33273,-87.928367)"
     id="g105">
    <path
       class="pyqrline"
       d="M 77.347347,60.914448 H 104.5489 m 7.77188,0 h 3.88593 m 23.31562,0 h 7.77187 m 19.4297,0 h 3.88594 m 23.31562,0 h 27.20155 M 77.347347,64.800384 h 3.885937 m 19.429686,0 h 3.88593 m 11.65781,0 h 19.42969 m 3.88593,0 h 7.77187 m 7.77188,0 h 3.88593 m 7.77189,0 h 3.88594 m 15.54374,0 h 3.88594 m 3.88594,0 h 3.88593 m 19.42968,0 h 3.88594 M 77.347347,68.686321 h 3.885937 m 3.885936,0 h 11.65781 m 3.88594,0 h 3.88593 m 3.88594,0 h 3.88594 m 11.65781,0 h 7.77187 m 7.77187,0 h 7.77187 m 15.54375,0 h 3.88595 m 7.77187,0 h 7.77188 m 11.65781,0 h 3.88593 m 3.88594,0 h 11.65781 m 3.88593,0 h 3.88594 M 77.347347,72.572257 h 3.885937 m 3.885936,0 h 11.65781 m 3.88594,0 h 3.88593 m 3.88594,0 h 23.31562 m 7.77187,0 h 3.88594 m 11.65781,0 h 3.88593 m 3.88594,0 h 7.77189 m 3.88593,0 h 3.88594 m 3.88594,0 h 7.77187 m 3.88594,0 h 3.88593 m 3.88594,0 h 11.65781 m 3.88593,0 h 3.88594 M 77.347347,76.458194 h 3.885937 m 3.885936,0 h 11.65781 m 3.88594,0 h 3.88593 m 7.77188,0 h 3.88593 m 15.54375,0 h 15.54374 m 3.88594,0 h 15.54376 m 19.42968,0 h 3.88594 m 3.88594,0 h 3.88593 m 3.88594,0 h 11.65781 m 3.88593,0 h 3.88594 M 77.347347,80.344131 h 3.885937 m 19.429686,0 h 3.88593 m 11.65781,0 h 7.77188 m 3.88593,0 h 7.77188 m 3.88593,0 h 3.88594 m 3.88593,0 h 3.88594 m 7.77187,0 h 3.88594 m 3.88595,0 h 7.77187 m 19.42969,0 h 3.88593 m 19.42968,0 h 3.88594 M 77.347347,84.230067 H 104.5489 m 3.88594,0 h 3.88594 m 3.88593,0 h 3.88594 m 3.88594,0 h 3.88593 m 3.88594,0 h 3.88594 m 3.88593,0 h 3.88594 m 3.88593,0 h 3.88594 m 3.88594,0 h 3.88593 m 3.88594,0 h 3.88595 m 3.88594,0 h 3.88593 m 3.88594,0 h 3.88594 m 3.88593,0 h 3.88594 m 3.88594,0 h 27.20155 m -108.80623,3.885937 h 3.88593 m 3.88594,0 h 11.65781 m 3.88594,0 h 3.88593 m 3.88594,0 h 3.88593 m 7.77188,0 h 7.77187 m 7.77189,0 h 7.77187 m 3.88594,0 h 7.77187 M 89.005157,92.00194 h 7.771873 m 3.88594,0 h 7.77187 m 7.77187,0 h 15.54375 m 15.54374,0 h 3.88594 m 3.88594,0 h 23.31563 m 7.77187,0 h 3.88594 m 15.54374,0 h 7.77188 M 81.233284,95.887877 h 7.771873 m 3.885936,0 h 3.885937 m 7.77187,0 h 3.88594 m 3.88594,0 h 3.88593 m 3.88594,0 h 7.77187 m 11.65781,0 h 11.65781 m 19.4297,0 h 3.88593 m 15.54375,0 h 7.77187 m 3.88594,0 h 3.88593 m 3.88594,0 h 3.88594 M 81.233284,99.773813 h 3.885936 m 11.65781,0 h 23.31562 m 3.88594,0 h 15.54374 m 3.88594,0 h 7.77187 m 19.4297,0 h 7.77187 m 11.65781,0 h 15.54374 m 3.88594,0 h 3.88594 m 3.88593,0 h 3.88594 M 85.11922,103.65975 h 3.885937 m 19.429683,0 h 11.65781 m 7.77187,0 h 7.77188 m 3.88593,0 h 34.97344 m 3.88594,0 h 7.77187 m 3.88594,0 h 7.77187 m 7.77187,0 h 11.65781 m -139.893723,3.88594 h 7.771873 m 7.771873,0 h 27.201557 m 7.77187,0 h 7.77188 m 15.54374,0 h 3.88594 m 15.54376,0 h 3.88593 m 11.65781,0 h 15.54375 m 3.88593,0 h 3.88594 m 3.88594,0 h 7.77187 m -143.779663,3.88593 h 7.771873 m 3.885937,0 h 3.885936 m 3.885937,0 h 3.88594 m 7.77187,0 h 3.88594 m 7.77187,0 h 7.77187 m 7.77188,0 h 50.51718 m 3.88594,0 h 3.88594 m 7.77187,0 h 3.88593 m 3.88594,0 h 7.77187 m -132.12185,3.88594 h 3.885937 m 3.885936,0 h 3.885937 m 3.88594,0 h 3.88593 m 3.88594,0 h 11.65781 m 11.65781,0 h 11.65781 m 15.54374,0 h 3.88594 m 3.88595,0 h 3.88594 m 11.65781,0 h 7.77187 m 3.88594,0 h 3.88593 m 7.77187,0 h 15.54375 M 77.347347,119.2035 h 11.65781 m 7.771873,0 h 3.88594 m 3.88593,0 h 15.54375 m 7.77187,0 h 3.88594 m 3.88594,0 h 11.6578 m 7.77188,0 h 15.54376 m 11.65781,0 h 3.88593 m 3.88594,0 h 3.88594 m 3.88593,0 h 3.88594 m 3.88593,0 h 7.77188 m 3.88593,0 h 3.88594 m -128.235917,3.88593 h 3.885937 m 3.88594,0 h 3.88593 m 7.77188,0 h 7.77187 m 23.31562,0 h 15.54374 m 3.88594,0 h 15.54376 m 3.88594,0 h 3.88593 m 7.77188,0 h 3.88593 m 11.65781,0 h 7.77187 m -139.893723,3.88594 h 11.65781 m 3.885936,0 h 3.885937 m 11.65781,0 h 7.77187 m 3.88594,0 h 15.54375 m 11.6578,0 h 3.88594 m 15.54376,0 h 7.77187 m 7.77188,0 h 11.65781 m 3.88593,0 h 3.88594 m 3.88593,0 h 11.65781 m -139.893723,3.88594 h 11.65781 m 3.885936,0 h 3.885937 m 3.88594,0 h 7.77187 m 3.88594,0 h 3.88593 m 15.54375,0 h 3.88594 m 11.6578,0 h 3.88594 m 3.88594,0 h 11.65782 m 3.88594,0 h 3.88593 m 3.88594,0 h 7.77187 m 7.77188,0 h 7.77187 m 7.77187,0 h 3.88594 m 3.88593,0 h 3.88594 m -143.779663,3.88593 h 15.543746 m 19.429687,0 h 3.88593 m 3.88594,0 h 3.88594 m 19.42968,0 h 7.77187 m 3.88594,0 h 7.77187 m 3.88595,0 h 3.88594 m 3.88593,0 h 3.88594 m 7.77187,0 h 3.88594 m 3.88594,0 h 3.88593 m 7.77187,0 h 3.88594 m 3.88594,0 h 3.88593 m -128.235913,3.88594 h 7.771873 m 3.88594,0 h 7.77187 m 3.88594,0 h 7.77187 m 7.77187,0 h 3.88594 m 3.88594,0 h 7.77187 m 3.88593,0 h 3.88594 m 11.65781,0 h 3.88595 m 11.65781,0 h 3.88594 m 3.88593,0 h 11.65781 m 3.88594,0 h 7.77187 m 7.77187,0 h 3.88594 m -143.779663,3.88594 h 7.771873 m 3.885937,0 h 7.771873 m 7.77187,0 h 15.54375 m 11.65781,0 h 3.88594 m 3.88593,0 h 7.77187 m 7.77188,0 h 7.77187 m 3.88595,0 h 3.88594 m 3.88593,0 h 15.54375 m 7.77187,0 h 7.77187 m 3.88594,0 h 3.88594 m -136.007793,3.88593 h 3.885937 m 3.885936,0 h 11.65781 m 3.88594,0 h 3.88593 m 3.88594,0 h 7.77187 m 15.54375,0 h 7.77187 m 7.77187,0 h 11.65781 m 15.54376,0 h 3.88594 m 3.88594,0 h 7.77187 m 11.65781,0 h 3.88593 m 3.88594,0 h 3.88594 m 3.88593,0 h 3.88594 m -128.235917,3.88594 h 3.885937 m 11.65781,0 h 15.54375 m 7.77187,0 h 3.88594 m 7.77187,0 h 3.88593 m 27.20157,0 h 3.88594 m 3.88594,0 h 3.88593 m 3.88594,0 h 3.88594 m 3.88593,0 h 3.88594 m 3.88593,0 h 11.65781 m -139.893723,3.88593 h 3.885937 m 3.885936,0 h 3.885937 m 3.885936,0 H 104.5489 m 3.88594,0 h 3.88594 m 15.54374,0 h 3.88594 m 7.77187,0 h 3.88594 m 11.65781,0 h 3.88593 m 3.88594,0 h 3.88595 m 3.88594,0 h 7.77187 m 19.42968,0 h 11.65781 m 3.88594,0 h 7.77187 m -143.779663,3.88594 h 3.885937 m 7.771873,0 h 7.771873 m 7.77187,0 h 7.77188 m 11.65781,0 h 7.77187 m 7.77187,0 h 11.65781 m 11.65781,0 h 3.88595 m 11.65781,0 h 3.88594 m 11.65781,0 h 3.88593 m 11.65781,0 h 7.77187 M 77.347347,161.9488 h 7.771873 m 7.771873,0 h 3.885937 m 3.88594,0 h 3.88593 m 3.88594,0 h 11.65781 m 7.77187,0 h 3.88594 m 3.88594,0 h 3.88593 m 11.65781,0 h 3.88594 m 3.88593,0 h 3.88594 m 3.88595,0 h 11.65781 m 3.88594,0 h 3.88593 m 11.65781,0 h 23.31562 m -143.779663,3.88593 h 3.885937 m 3.885936,0 h 7.771873 m 3.885937,0 h 3.88594 m 3.88593,0 h 7.77188 m 3.88593,0 h 3.88594 m 19.42968,0 h 7.77187 m 3.88594,0 h 7.77187 m 7.77189,0 h 3.88594 m 15.54374,0 h 3.88594 m 7.77187,0 h 3.88594 m 7.77187,0 h 7.77187 m -139.893723,3.88594 h 3.885937 m 19.429686,0 h 7.77187 m 3.88594,0 h 3.88593 m 3.88594,0 h 3.88594 m 3.88593,0 h 3.88594 m 11.65781,0 h 3.88593 m 3.88594,0 h 3.88594 m 3.88593,0 h 7.77189 m 7.77187,0 h 3.88594 m 3.88594,0 h 27.20155 m -101.03436,3.88594 h 3.88594 m 15.54374,0 h 11.65781 m 7.77187,0 h 11.65781 m 15.54376,0 h 15.54375 m 11.65781,0 h 15.54374 M 77.347347,177.49254 H 104.5489 m 3.88594,0 h 15.54375 m 11.65781,0 h 7.77187 m 3.88593,0 h 3.88594 m 11.65781,0 h 7.77189 m 7.77187,0 h 3.88594 m 3.88593,0 h 3.88594 m 3.88594,0 h 3.88593 m 3.88594,0 h 11.65781 m 3.88593,0 h 3.88594 m -143.779663,3.88594 h 3.885937 m 19.429686,0 h 3.88593 m 7.77188,0 h 3.88593 m 3.88594,0 h 3.88594 m 7.77187,0 h 3.88594 m 7.77187,0 h 3.88593 m 3.88594,0 h 19.4297 m 3.88593,0 h 3.88594 m 3.88594,0 h 7.77187 m 11.65781,0 h 7.77187 m 7.77187,0 h 3.88594 m -143.779663,3.88594 h 3.885937 m 3.885936,0 h 11.65781 m 3.88594,0 h 3.88593 m 3.88594,0 h 7.77187 m 3.88594,0 h 7.77187 m 3.88594,0 h 7.77187 m 3.88594,0 h 3.88593 m 3.88594,0 h 11.65781 m 3.88595,0 h 3.88594 m 7.77187,0 h 27.20155 m 7.77188,0 h 7.77187 m -143.779663,3.88593 h 3.885937 m 3.885936,0 h 11.65781 m 3.88594,0 h 3.88593 m 3.88594,0 h 3.88594 m 3.88593,0 h 3.88594 m 3.88594,0 h 11.65781 m 3.88593,0 h 7.77187 m 7.77188,0 h 11.65782 m 3.88594,0 h 19.42968 m 3.88594,0 h 3.88593 m 11.65781,0 h 3.88594 m -136.007793,3.88594 h 3.885937 m 3.885936,0 h 11.65781 m 3.88594,0 h 3.88593 m 27.20156,0 h 3.88594 m 11.6578,0 h 7.77188 m 11.65782,0 h 3.88594 m 3.88593,0 h 7.77188 m 7.77187,0 h 3.88594 m 7.77187,0 h 19.42968 m -143.779663,3.88594 h 3.885937 m 19.429686,0 h 3.88593 m 15.54375,0 h 3.88594 m 15.54374,0 h 3.88594 m 3.88593,0 h 3.88594 m 7.77187,0 h 15.54376 m 3.88594,0 h 3.88594 m 27.20155,0 h 11.65781 M 77.347347,200.80816 H 104.5489 m 19.42969,0 h 3.88593 m 11.65781,0 h 11.65781 m 7.77187,0 h 3.88594 m 3.88595,0 h 7.77187 m 11.65781,0 h 3.88594 m 7.77187,0 h 3.88594 m 3.88593,0 h 3.88594 m 7.77187,0 h 3.88594"
       id="path2"
       inkscape:connector-curvature="0"
       style="stroke:#000000;stroke-width:3.88594" />
    <rect
       style="opacity:1;fill:#ffffff;fill-opacity:1;stroke:#ffffff;stroke-width:19.4297;stroke-miterlimit:4;stroke-dasharray:none;stroke-dashoffset:23.9244;stroke-opacity:1"
       id="rect15"
       width="31.861387"
       height="31.861387"
       x="133.30649"
       y="114.93079" />
    <g
       transform="matrix(0.57956882,0,0,0.57956882,126.23554,-18.657098)"
       id="layer1"
       inkscape:label="Layer 1"
       style="fill:#000000;stroke-width:25.3413">
      <g
         style="display:inline;fill:#000000;stroke-width:3.02665"
         transform="matrix(8.3726953,0,0,8.3726953,-110.70045,212.89619)"
         id="g1092">
        <g
           style="fill:#000000;stroke-width:3.02665"
           id="g1034"
           transform="translate(-130.29067,-126.22247)">
          <path
             id="path9627"
             d="m 146.58431,132.73293 c -0.44379,0.44377 -0.51755,1.08948 -0.16474,1.44226 0.35277,0.35277 0.99846,0.27901 1.44222,-0.16472 0.44377,-0.44376 0.3154,-1.29157 0.16471,-1.44228 -0.12177,-0.12176 -0.99845,-0.279 -1.44219,0.16474 z"
             inkscape:connector-curvature="0"
             style="fill:#000000;fill-rule:evenodd;stroke:none;stroke-width:0.0396591" />
          <path
             style="fill:#000000;fill-opacity:1;fill-rule:evenodd;stroke:none;stroke-width:0.0396591"
             inkscape:connector-curvature="0"
             d="m 149.92045,132.73293 c 0.4438,0.44377 0.51756,1.08948 0.16474,1.44226 -0.35277,0.35277 -0.99845,0.27901 -1.44222,-0.16472 -0.44377,-0.44376 -0.31539,-1.29157 -0.16471,-1.44228 0.12177,-0.12176 0.99845,-0.279 1.44219,0.16474 z"
             id="path9629" />
          <path
             style="fill:#000000;fill-opacity:1;fill-rule:evenodd;stroke:none;stroke-width:0.0396591"
             inkscape:connector-curvature="0"
             d="m 146.58431,131.9626 c -0.44379,-0.44377 -0.51755,-1.08949 -0.16474,-1.44227 0.35277,-0.35274 0.99846,-0.279 1.44222,0.16475 0.44377,0.44374 0.3154,1.29155 0.16471,1.44226 -0.12177,0.12176 -0.99845,0.279 -1.44219,-0.16474 z"
             id="path9631" />
          <path
             id="path9633"
             d="m 149.92045,131.9626 c 0.4438,-0.44377 0.51756,-1.08949 0.16474,-1.44227 -0.35277,-0.35274 -0.99845,-0.279 -1.44222,0.16475 -0.44377,0.44374 -0.31539,1.29155 -0.16471,1.44226 0.12177,0.12176 0.99845,0.279 1.44219,-0.16474 z"
             inkscape:connector-curvature="0"
             style="fill:#000000;fill-rule:evenodd;stroke:none;stroke-width:0.0396591" />
        </g>
        <g
           id="g933"
           transform="matrix(0.31607641,0,0,0.31607641,14.042365,0.45312491)"
           style="fill:#000000;stroke-width:2.53357">
          <path
             style="fill:#000000;stroke-width:2.53357"
             inkscape:connector-curvature="0"
             class="st0"
             d="m 21,9.2 -2.2,2.2 c 3.6,3.6 3.6,9.4 0,12.9 -3.6,3.6 -9.4,3.6 -12.9,0 -3.6,-3.6 -3.6,-9.4 0,-12.9 v 0 l 5.7,-5.7 0.8,-0.8 v 0 -4.3 L 3.8,9.2 C -1,14 -1,21.7 3.8,26.5 8.6,31.3 16.3,31.3 21,26.5 25.8,21.7 25.8,14 21,9.2 Z"
             id="path929" />
          <circle
             style="fill:#000000;stroke-width:2.53357"
             class="st0"
             cx="16.700001"
             cy="7.0999999"
             r="1.6"
             id="circle931" />
        </g>
      </g>
    </g>
  </g>
</svg>
