<?xml version="1.0" encoding="UTF-8" standalone="no"?>
<!-- Created with Inkscape (http://www.inkscape.org/) -->

<svg
   xmlns:dc="http://purl.org/dc/elements/1.1/"
   xmlns:cc="http://creativecommons.org/ns#"
   xmlns:rdf="http://www.w3.org/1999/02/22-rdf-syntax-ns#"
   xmlns:svg="http://www.w3.org/2000/svg"
   xmlns="http://www.w3.org/2000/svg"
   xmlns:sodipodi="http://sodipodi.sourceforge.net/DTD/sodipodi-0.dtd"
   xmlns:inkscape="http://www.inkscape.org/namespaces/inkscape"
   width="144.86006mm"
   height="53.988449mm"
   viewBox="-0.6 0 144.86006 53.988449"
   version="1.1"
   id="svg17980"
   inkscape:version="0.92.3 (2405546, 2018-03-11)"
   sodipodi:docname="some_facts.svg">
  <defs
     id="defs17974">
    <clipPath
       clipPathUnits="userSpaceOnUse"
       id="clipPath4745">
      <path
         d="m 102.184,2224.121 c 21.703,0 20.347,-9.41 20.347,-9.41 l -0.023,-9.75 h -20.711 v -2.926 h 28.933 c 0,0 13.887,1.574 13.887,-20.324 0,-21.895 -12.121,-21.121 -12.121,-21.121 h -7.23 v 10.164 c 0,0 0.386,12.117 -11.93,12.117 -12.316,0 -20.539,0 -20.539,0 0,0 -11.539,-0.183 -11.539,11.156 0,11.336 0,18.746 0,18.746 0,0 -1.754,11.348 20.926,11.348 z m 11.418,-6.555 c -2.059,0 -3.723,-1.668 -3.723,-3.726 0,-2.063 1.664,-3.727 3.723,-3.727 2.062,0 3.726,1.664 3.726,3.727 0,2.058 -1.664,3.726 -3.726,3.726 z"
         id="path4743"
         inkscape:connector-curvature="0" />
    </clipPath>
    <linearGradient
       x1="89.136749"
       y1="111.92053"
       x2="147.77737"
       y2="168.1012"
       gradientUnits="userSpaceOnUse"
       gradientTransform="matrix(0.774168,0,0,0.774168,24.344429,2086.8498)"
       spreadMethod="pad"
       id="linearGradient4753">
      <stop
         style="stop-opacity:1;stop-color:#ffe052"
         offset="0"
         id="stop4749" />
      <stop
         style="stop-opacity:1;stop-color:#ffc331"
         offset="1"
         id="stop4751" />
    </linearGradient>
    <clipPath
       clipPathUnits="userSpaceOnUse"
       id="clipPath4727">
      <path
         d="m 101.566,2139.082 c -21.699,0 -20.343,9.41 -20.343,9.41 l 0.023,9.75 h 20.707 v 2.93 H 73.02 c 0,0 -13.887,-1.578 -13.887,20.32 0,21.899 12.121,21.121 12.121,21.121 h 7.234 v -10.16 c 0,0 -0.39,-12.121 11.926,-12.121 12.316,0 20.539,0 20.539,0 0,0 11.543,0.184 11.543,-11.152 0,-11.34 0,-18.75 0,-18.75 0,0 1.75,-11.348 -20.93,-11.348 z m -11.418,6.555 c 2.063,0 3.727,1.668 3.727,3.726 0,2.063 -1.664,3.727 -3.727,3.727 -2.058,0 -3.726,-1.664 -3.726,-3.727 0,-2.058 1.668,-3.726 3.726,-3.726 z"
         id="path4725"
         inkscape:connector-curvature="0" />
    </clipPath>
    <linearGradient
       x1="55.549179"
       y1="77.070274"
       x2="110.14919"
       y2="131.85291"
       gradientUnits="userSpaceOnUse"
       gradientTransform="matrix(0.774168,0,0,0.774168,24.344429,2086.8498)"
       spreadMethod="pad"
       id="linearGradient4735">
      <stop
         style="stop-opacity:1;stop-color:#387eb8"
         offset="0"
         id="stop4731" />
      <stop
         style="stop-opacity:1;stop-color:#366994"
         offset="1"
         id="stop4733" />
    </linearGradient>
  </defs>
  <sodipodi:namedview
     id="base"
     pagecolor="#ffffff"
     bordercolor="#666666"
     borderopacity="1.0"
     inkscape:pageopacity="0.0"
     inkscape:pageshadow="2"
     inkscape:zoom="0.98994949"
     inkscape:cx="347.90673"
     inkscape:cy="12.056278"
     inkscape:document-units="mm"
     inkscape:current-layer="layer1"
     showgrid="false"
     viewbox-x="-0.6"
     fit-margin-top="0"
     fit-margin-left="0"
     fit-margin-right="0"
     fit-margin-bottom="0"
     inkscape:window-width="927"
     inkscape:window-height="1025"
     inkscape:window-x="993"
     inkscape:window-y="27"
     inkscape:window-maximized="0" />
  <metadata
     id="metadata17977">
    <rdf:RDF>
      <cc:Work
         rdf:about="">
        <dc:format>image/svg+xml</dc:format>
        <dc:type
           rdf:resource="http://purl.org/dc/dcmitype/StillImage" />
        <dc:title></dc:title>
      </cc:Work>
    </rdf:RDF>
  </metadata>
  <g
     inkscape:label="Layer 1"
     inkscape:groupmode="layer"
     id="layer1"
     transform="translate(-12.893307,-5.3825135)">
    <rect
       id="rect22136"
       width="144.86006"
       height="53.988449"
       x="12.293307"
       y="5.3825135"
       style="fill:#ececec;fill-opacity:1;stroke:none;stroke-width:0.26458332" />
    <g
       id="g24054"
       transform="translate(-0.28399296,0.31191417)">
      <g
         transform="translate(40.624968,-45.030117)"
         id="g18360">
        <g
           transform="matrix(0.35277777,0,0,0.35277777,-45.985234,-700.82273)"
           id="g4723"
           clip-path="url(#clipPath4727)">
          <g
             id="g4729">
            <path
               d="m 101.566,2139.082 c -21.699,0 -20.343,9.41 -20.343,9.41 l 0.023,9.75 h 20.707 v 2.93 H 73.02 c 0,0 -13.887,-1.578 -13.887,20.32 0,21.899 12.121,21.121 12.121,21.121 h 7.234 v -10.16 c 0,0 -0.39,-12.121 11.926,-12.121 12.316,0 20.539,0 20.539,0 0,0 11.543,0.184 11.543,-11.152 0,-11.34 0,-18.75 0,-18.75 0,0 1.75,-11.348 -20.93,-11.348 z m -11.418,6.555 c 2.063,0 3.727,1.668 3.727,3.726 0,2.063 -1.664,3.727 -3.727,3.727 -2.058,0 -3.726,-1.664 -3.726,-3.727 0,-2.058 1.668,-3.726 3.726,-3.726 z"
               style="fill:url(#linearGradient4735);stroke:none"
               id="path4737"
               inkscape:connector-curvature="0" />
          </g>
        </g>
        <g
           transform="matrix(0.35277777,0,0,0.35277777,-45.985234,-700.82273)"
           id="g4741"
           clip-path="url(#clipPath4745)">
          <g
             id="g4747">
            <path
               d="m 102.184,2224.121 c 21.703,0 20.347,-9.41 20.347,-9.41 l -0.023,-9.75 h -20.711 v -2.926 h 28.933 c 0,0 13.887,1.574 13.887,-20.324 0,-21.895 -12.121,-21.121 -12.121,-21.121 h -7.23 v 10.164 c 0,0 0.386,12.117 -11.93,12.117 -12.316,0 -20.539,0 -20.539,0 0,0 -11.539,-0.183 -11.539,11.156 0,11.336 0,18.746 0,18.746 0,0 -1.754,11.348 20.926,11.348 z m 11.418,-6.555 c -2.059,0 -3.723,-1.668 -3.723,-3.726 0,-2.063 1.664,-3.727 3.723,-3.727 2.062,0 3.726,1.664 3.726,3.727 0,2.058 -1.664,3.726 -3.726,3.726 z"
               style="fill:url(#linearGradient4753);stroke:none"
               id="path4755"
               inkscape:connector-curvature="0" />
          </g>
        </g>
        <path
           inkscape:connector-curvature="0"
           id="path4757"
           style="fill:#000000;fill-opacity:1;fill-rule:nonzero;stroke:none;stroke-width:0.35277775"
           d="m -19.805243,95.905047 h 0.143228 l 0.479778,-0.01093 c 1.245658,0 1.890536,0.567973 1.890536,1.664759 0,1.146529 -0.705555,1.824566 -1.890536,1.824566 -1.240367,0 -1.846792,-0.61736 -1.92405,-1.940277 h -1.129947 c 0.04974,0.733074 0.182033,1.207207 0.396875,1.620661 0.463197,0.8763 1.367014,1.328204 2.618316,1.328204 1.8796,0 3.09245,-1.124298 3.09245,-2.849733 0,-1.157465 -0.451908,-1.802342 -1.549047,-2.177346 0.848784,-0.330552 1.273528,-0.975429 1.273528,-1.890536 0,-1.570918 -1.042106,-2.513541 -2.778125,-2.513541 -1.846792,0 -2.822222,1.0033 -2.861028,2.948868 h 1.129948 c 0.01658,-0.551037 0.06632,-0.859718 0.20955,-1.146527 0.258938,-0.50165 0.821266,-0.810331 1.532466,-0.810331 1.0033,0 1.609372,0.59549 1.609372,1.559983 0,0.64488 -0.231422,1.030817 -0.733072,1.234723 -0.30868,0.132292 -0.710847,0.182034 -1.510242,0.192969 z" />
        <path
           inkscape:connector-curvature="0"
           id="path4759"
           style="fill:#000000;fill-opacity:1;fill-rule:nonzero;stroke:none;stroke-width:0.35277775"
           d="m -14.359412,98.755138 h 1.339497 v 1.339492 h -1.339497 z" />
        <path
           inkscape:connector-curvature="0"
           id="path4761"
           style="fill:#000000;fill-opacity:1;fill-rule:nonzero;stroke:none;stroke-width:0.35277775"
           d="m -5.7756237,90.960865 h -4.7127583 l -0.683331,4.97205 h 1.047045 c 0.5238753,-0.62865 0.9648473,-0.849135 1.6704033,-0.849135 1.223433,0 2.000955,0.837845 2.000955,2.188279 0,1.317625 -0.760942,2.111375 -2.000955,2.111375 -0.992364,0 -1.5931453,-0.50165 -1.8686643,-1.532467 h -1.129947 c 0.154163,0.749655 0.281163,1.108075 0.551038,1.444273 0.518231,0.694619 1.4442733,1.09679 2.4750893,1.09679 1.841147,0 3.130903,-1.3395 3.130903,-3.274133 0,-1.802342 -1.196269,-3.037065 -2.949222,-3.037065 -0.644878,0 -1.162756,0.1651 -1.686631,0.55104 l 0.358423,-2.551997 h 3.797652 z" />
        <path
           inkscape:connector-curvature="0"
           id="path4763"
           style="fill:#000000;fill-opacity:1;fill-rule:nonzero;stroke:none;stroke-width:0.35277775"
           d="M 2.1456493,96.654699 H -0.52240965 V 93.986992 H -1.4209347 v 2.667707 h -2.667706 v 0.904168 h 2.667706 v 2.662413 h 0.89852505 V 97.558867 H 2.1456493 Z" />
      </g>
      <g
         transform="translate(16.07239,-45.030113)"
         id="g18368">
        <path
           inkscape:connector-curvature="0"
           id="path4765"
           style="fill:#ee4c2c;fill-opacity:1;fill-rule:nonzero;stroke:none;stroke-width:0.35277775"
           d="m 61.067651,62.544263 -2.239433,2.236611 c 3.662891,3.661481 3.662891,9.559219 0,13.118747 -3.661482,3.661479 -9.562042,3.661479 -13.122982,0 -3.662892,-3.661481 -3.662892,-9.559219 0,-13.118747 l 5.79896,-5.796138 0.8128,-0.814211 v -4.372681 l -8.748887,8.746419 c -4.882446,4.881033 -4.882446,12.710936 0,17.591969 4.883502,4.882443 12.717637,4.882443 17.499542,0 4.882443,-4.881033 4.882443,-12.710936 0,-17.591969 z" />
        <path
           inkscape:connector-curvature="0"
           id="path4767"
           style="fill:#ee4c2c;fill-opacity:1;fill-rule:nonzero;stroke:none;stroke-width:0.35277775"
           d="m 58.319863,60.408194 c 0,0.898525 -0.728837,1.627717 -1.627362,1.627717 -0.898525,0 -1.627717,-0.729192 -1.627717,-1.627717 0,-0.898525 0.729192,-1.627364 1.627717,-1.627364 0.898525,0 1.627362,0.728839 1.627362,1.627364 z" />
        <path
           inkscape:connector-curvature="0"
           id="path4769"
           style="fill:#000000;fill-opacity:1;fill-rule:nonzero;stroke:none;stroke-width:0.35277775"
           d="m 42.597969,93.590117 v 6.504163 h 1.13524 v -9.133415 h -0.749654 c -0.396875,1.405467 -0.655812,1.598435 -2.408767,1.818923 v 0.810329 z" />
        <path
           inkscape:connector-curvature="0"
           id="path4771"
           style="fill:#000000;fill-opacity:1;fill-rule:nonzero;stroke:none;stroke-width:0.35277775"
           d="m 47.553086,98.755138 h 1.339498 v 1.339492 h -1.339498 z" />
        <path
           inkscape:connector-curvature="0"
           id="path4773"
           style="fill:#000000;fill-opacity:1;fill-rule:nonzero;stroke:none;stroke-width:0.35277775"
           d="m 53.551719,90.960865 c -0.854426,0 -1.625951,0.37465 -2.100085,1.0033 -0.595138,0.799042 -0.892881,2.022827 -0.892881,3.709459 0,3.081514 1.030816,4.718406 2.992966,4.718406 1.929342,0 2.987675,-1.636892 2.987675,-4.641148 0,-1.774825 -0.286456,-2.960158 -0.887589,-3.786717 -0.479425,-0.645231 -1.240012,-1.0033 -2.100086,-1.0033 z m 0,1.0033 c 1.223786,0 1.830211,1.240015 1.830211,3.687585 0,2.585157 -0.595487,3.797655 -1.857727,3.797655 -1.195917,0 -1.802342,-1.26224 -1.802342,-3.7592 0,-2.502606 0.606425,-3.72604 1.829858,-3.72604 z" />
        <path
           inkscape:connector-curvature="0"
           id="path4775"
           style="fill:#000000;fill-opacity:1;fill-rule:nonzero;stroke:none;stroke-width:0.35277775"
           d="m 64.058146,96.654699 h -2.668058 v -2.667707 h -0.898525 v 2.667707 h -2.667704 v 0.904168 h 2.667704 v 2.662413 h 0.898525 v -2.662413 h 2.668058 z" />
      </g>
      <g
         transform="translate(-6.6817297,-44.875949)"
         id="g18412">
        <path
           inkscape:connector-curvature="0"
           id="path4777"
           style="fill:#555555;fill-opacity:1;fill-rule:nonzero;stroke:none;stroke-width:0.35277775"
           d="M 97.804874,53.64368 H 138.14571 V 65.888949 H 97.804874 Z" />
        <path
           inkscape:connector-curvature="0"
           id="path4779"
           style="fill:#44cc11;fill-opacity:1;fill-rule:nonzero;stroke:none;stroke-width:0.35277775"
           d="m 138.14535,53.64368 h 23.0505 v 12.245269 h -23.0505 z" />
        <path
           inkscape:connector-curvature="0"
           id="path4781"
           style="fill:#010101;fill-opacity:0.3;fill-rule:nonzero;stroke:none;stroke-width:0.35277775"
           d="m 107.51437,59.283891 v 0.56762 c -0.16934,-0.0949 -0.34043,-0.165453 -0.51259,-0.20955 -0.17357,-0.04657 -0.34713,-0.07161 -0.52352,-0.07161 -0.39441,0 -0.69886,0.125589 -0.91511,0.375003 -0.21766,0.246591 -0.32526,0.593725 -0.32526,1.041752 0,0.451909 0.1076,0.803275 0.32526,1.052689 0.21625,0.246945 0.5207,0.369359 0.91511,0.369359 0.17639,0 0.34995,-0.02187 0.52352,-0.06597 0.17216,-0.04692 0.34325,-0.118534 0.51259,-0.215195 v 0.556684 c -0.16934,0.08149 -0.34432,0.140758 -0.52353,0.176388 -0.18062,0.04022 -0.37359,0.06068 -0.5789,0.06068 -0.55528,0 -0.99625,-0.172155 -1.32292,-0.517877 -0.32808,-0.348898 -0.49036,-0.82162 -0.49036,-1.416756 0,-0.597958 0.1651,-1.069269 0.496,-1.411111 0.33056,-0.344664 0.78282,-0.518231 1.35608,-0.518231 0.18733,0 0.36901,0.0194 0.5454,0.05503 0.17921,0.03739 0.35277,0.09384 0.51823,0.171098 z" />
        <path
           inkscape:connector-curvature="0"
           id="path4783"
           style="fill:#010101;fill-opacity:0.3;fill-rule:nonzero;stroke:none;stroke-width:0.35277775"
           d="m 109.99898,59.570347 c -0.32385,0 -0.58138,0.127 -0.77153,0.380294 -0.18767,0.253647 -0.28116,0.599722 -0.28116,1.036461 0,0.440973 0.0935,0.788106 0.28116,1.041753 0.18733,0.253647 0.44345,0.380295 0.77153,0.380295 0.32244,0 0.57891,-0.126648 0.76623,-0.380295 0.18733,-0.253647 0.28117,-0.60078 0.28117,-1.041753 0,-0.432858 -0.0938,-0.777169 -0.28117,-1.030816 -0.18732,-0.25647 -0.44379,-0.385939 -0.76623,-0.385939 z m 0,-0.512586 c 0.52493,0 0.93839,0.171097 1.24037,0.512586 0.30021,0.341841 0.4519,0.814564 0.4519,1.416755 0,0.606425 -0.15169,1.080206 -0.4519,1.422048 -0.30198,0.341841 -0.71544,0.512586 -1.24037,0.512586 -0.52917,0 -0.94544,-0.170745 -1.24566,-0.512586 -0.29774,-0.341842 -0.44662,-0.815623 -0.44662,-1.422048 0,-0.602191 0.14888,-1.074914 0.44662,-1.416755 0.30022,-0.341489 0.71649,-0.512586 1.24566,-0.512586 z" />
        <path
           inkscape:connector-curvature="0"
           id="path4785"
           style="fill:#010101;fill-opacity:0.3;fill-rule:nonzero;stroke:none;stroke-width:0.35277775"
           d="m 112.25358,59.145955 h 0.64488 l 1.15217,3.09245 1.14653,-3.09245 h 0.64488 l -1.3836,3.682294 h -0.82126 z" />
        <path
           inkscape:connector-curvature="0"
           id="path4787"
           style="fill:#010101;fill-opacity:0.3;fill-rule:nonzero;stroke:none;stroke-width:0.35277775"
           d="m 119.82737,60.832586 v 0.297744 h -2.78377 c 0.0247,0.416278 0.15028,0.733072 0.37465,0.953558 0.22331,0.218017 0.53763,0.325262 0.94262,0.325262 0.23178,0 0.45473,-0.02752 0.67275,-0.08255 0.22048,-0.05786 0.43674,-0.144639 0.65017,-0.259292 v 0.573264 c -0.21766,0.09243 -0.43956,0.16263 -0.66675,0.20955 -0.22895,0.04692 -0.46038,0.07161 -0.69462,0.07161 -0.58843,0 -1.05551,-0.170745 -1.40018,-0.512586 -0.34184,-0.341842 -0.51258,-0.804687 -0.51258,-1.388887 0,-0.602191 0.16263,-1.080558 0.49071,-1.433336 0.32632,-0.352777 0.76623,-0.529166 1.31727,-0.529166 0.49601,0 0.88759,0.159808 1.17405,0.479777 0.28928,0.316795 0.43568,0.748242 0.43568,1.295048 z m -0.60643,-0.176389 c -0.004,-0.330553 -0.0981,-0.592314 -0.28116,-0.788106 -0.18062,-0.198261 -0.4191,-0.297744 -0.71649,-0.297744 -0.33902,0 -0.60925,0.09666 -0.81033,0.286808 -0.2025,0.191558 -0.31856,0.460022 -0.34749,0.804686 z" />
        <path
           inkscape:connector-curvature="0"
           id="path4789"
           style="fill:#010101;fill-opacity:0.3;fill-rule:nonzero;stroke:none;stroke-width:0.35277775"
           d="m 122.95122,59.708283 c -0.066,-0.03598 -0.14041,-0.0635 -0.22049,-0.08255 -0.0811,-0.02222 -0.16933,-0.03316 -0.26458,-0.03316 -0.34185,0 -0.60502,0.112889 -0.78811,0.336197 -0.18485,0.22472 -0.27587,0.544336 -0.27587,0.959203 v 1.940278 h -0.60607 v -3.682295 h 0.60607 v 0.573264 c 0.12841,-0.223308 0.29351,-0.388408 0.49636,-0.496006 0.20531,-0.110419 0.45332,-0.165452 0.74401,-0.165452 0.0441,0 0.0896,0.0042 0.13793,0.01094 0.0508,0.0042 0.10725,0.01129 0.17075,0.02222 z" />
        <path
           inkscape:connector-curvature="0"
           id="path4791"
           style="fill:#010101;fill-opacity:0.3;fill-rule:nonzero;stroke:none;stroke-width:0.35277775"
           d="m 125.26897,60.976166 c -0.48895,0 -0.82938,0.05786 -1.01953,0.170745 -0.18768,0.110419 -0.28116,0.300566 -0.28116,0.567619 0,0.218017 0.0688,0.388761 0.20955,0.512939 0.14322,0.125236 0.33619,0.187325 0.57855,0.187325 0.33761,0 0.60784,-0.117122 0.81033,-0.352778 0.20108,-0.238478 0.30304,-0.553861 0.30304,-0.948266 v -0.137584 z m 1.2072,-0.248003 v 2.100086 h -0.60642 v -0.556683 c -0.14041,0.220486 -0.31256,0.384175 -0.51788,0.490361 -0.20673,0.106186 -0.45755,0.159809 -0.7553,0.159809 -0.37465,0 -0.67522,-0.104775 -0.89852,-0.313973 -0.22472,-0.212372 -0.3362,-0.497416 -0.3362,-0.854427 0,-0.410634 0.13794,-0.722136 0.41345,-0.931686 0.27835,-0.21202 0.69463,-0.319617 1.24566,-0.319617 h 0.84879 v -0.06068 c 0,-0.275519 -0.0921,-0.487892 -0.27552,-0.639233 -0.1845,-0.154517 -0.44098,-0.231775 -0.77153,-0.231775 -0.20955,0 -0.41627,0.02646 -0.61736,0.07726 -0.19861,0.04833 -0.39017,0.124178 -0.57326,0.22613 v -0.562327 c 0.22331,-0.08396 0.43815,-0.14605 0.64487,-0.187325 0.20955,-0.0441 0.41346,-0.06632 0.61172,-0.06632 0.53199,0 0.92887,0.137936 1.19063,0.413455 0.26458,0.27552 0.39687,0.69462 0.39687,1.256947 z" />
        <path
           inkscape:connector-curvature="0"
           id="path4793"
           style="fill:#010101;fill-opacity:0.3;fill-rule:nonzero;stroke:none;stroke-width:0.35277775"
           d="m 130.14859,60.943005 c 0,-0.436739 -0.0921,-0.777169 -0.27552,-1.01988 -0.18062,-0.242359 -0.43251,-0.363714 -0.7553,-0.363714 -0.32773,0 -0.58138,0.121355 -0.76059,0.363714 -0.18027,0.242711 -0.26987,0.583141 -0.26987,1.01988 0,0.43815 0.0896,0.77717 0.26987,1.019881 0.17921,0.239536 0.43286,0.358069 0.76059,0.358069 0.32279,0 0.57468,-0.118533 0.7553,-0.358069 0.18344,-0.242711 0.27552,-0.581731 0.27552,-1.019881 z m 0.60642,1.427692 c 0,0.628297 -0.1404,1.093964 -0.41874,1.400174 -0.27976,0.304448 -0.70556,0.4572 -1.27882,0.4572 -0.21379,0 -0.41628,-0.01623 -0.60643,-0.04939 -0.18732,-0.03034 -0.36936,-0.07726 -0.54574,-0.143227 v -0.589843 c 0.17638,0.0949 0.34995,0.1651 0.52352,0.209196 0.17639,0.04692 0.35419,0.07197 0.53481,0.07197 0.39687,0 0.69179,-0.103363 0.88759,-0.30868 0.19826,-0.206728 0.29739,-0.518231 0.29739,-0.937331 v -0.303039 c -0.12524,0.220486 -0.28505,0.384528 -0.47943,0.490714 -0.19579,0.107245 -0.42862,0.159808 -0.69991,0.159808 -0.45226,0 -0.8188,-0.171097 -1.09714,-0.512586 -0.27552,-0.344663 -0.41345,-0.802216 -0.41345,-1.372658 0,-0.56903 0.13793,-1.025172 0.41345,-1.367014 0.27834,-0.344664 0.64488,-0.51823 1.09714,-0.51823 0.27129,0 0.50412,0.05398 0.69991,0.159808 0.19438,0.107597 0.35419,0.268817 0.47943,0.485069 v -0.556683 h 0.60642 z" />
        <path
           inkscape:connector-curvature="0"
           id="path4795"
           style="fill:#010101;fill-opacity:0.3;fill-rule:nonzero;stroke:none;stroke-width:0.35277775"
           d="m 135.15239,60.832586 v 0.297744 h -2.78377 c 0.0251,0.416278 0.15028,0.733072 0.375,0.953558 0.22331,0.218017 0.53728,0.325262 0.94262,0.325262 0.23142,0 0.45473,-0.02752 0.6724,-0.08255 0.22048,-0.05786 0.43674,-0.144639 0.65052,-0.259292 v 0.573264 c -0.21766,0.09243 -0.43956,0.16263 -0.6671,0.20955 -0.2286,0.04692 -0.46038,0.07161 -0.69462,0.07161 -0.58844,0 -1.05551,-0.170745 -1.39982,-0.512586 -0.34184,-0.341842 -0.51294,-0.804687 -0.51294,-1.388887 0,-0.602191 0.16263,-1.080558 0.49071,-1.433336 0.32667,-0.352777 0.76624,-0.529166 1.31727,-0.529166 0.49636,0 0.88759,0.159808 1.1744,0.479777 0.28928,0.316795 0.43533,0.748242 0.43533,1.295048 z m -0.60643,-0.176389 c -0.004,-0.330553 -0.0977,-0.592314 -0.28116,-0.788106 -0.18027,-0.198261 -0.41875,-0.297744 -0.71649,-0.297744 -0.33902,0 -0.6089,0.09666 -0.81033,0.286808 -0.2025,0.191558 -0.31821,0.460022 -0.34714,0.804686 z" />
        <path
           inkscape:connector-curvature="0"
           id="path4797"
           style="fill:#ffffff;fill-opacity:1;fill-rule:nonzero;stroke:none;stroke-width:0.35277775"
           d="m 107.51437,58.670763 v 0.56762 c -0.16934,-0.09525 -0.34043,-0.165453 -0.51259,-0.20955 -0.17357,-0.04692 -0.34713,-0.07161 -0.52352,-0.07161 -0.39441,0 -0.69886,0.125236 -0.91511,0.375003 -0.21766,0.246591 -0.32526,0.593725 -0.32526,1.041753 0,0.451908 0.1076,0.803275 0.32526,1.052688 0.21625,0.246592 0.5207,0.369359 0.91511,0.369359 0.17639,0 0.34995,-0.02222 0.52352,-0.06632 0.17216,-0.04657 0.34325,-0.118534 0.51259,-0.214842 v 0.556683 c -0.16934,0.08149 -0.34432,0.140759 -0.52353,0.176389 -0.18062,0.03986 -0.37359,0.06068 -0.5789,0.06068 -0.55528,0 -0.99625,-0.172156 -1.32292,-0.518231 -0.32808,-0.348544 -0.49036,-0.821266 -0.49036,-1.416402 0,-0.598312 0.1651,-1.069623 0.496,-1.411112 0.33056,-0.344663 0.78282,-0.51823 1.35608,-0.51823 0.18733,0 0.36901,0.0194 0.5454,0.05503 0.17921,0.03739 0.35277,0.09384 0.51823,0.171097 z" />
        <path
           inkscape:connector-curvature="0"
           id="path4799"
           style="fill:#ffffff;fill-opacity:1;fill-rule:nonzero;stroke:none;stroke-width:0.35277775"
           d="m 109.99898,58.957219 c -0.32385,0 -0.58138,0.126647 -0.77153,0.380294 -0.18767,0.253648 -0.28116,0.59937 -0.28116,1.036462 0,0.440972 0.0935,0.788105 0.28116,1.041752 0.18733,0.253648 0.44345,0.380295 0.77153,0.380295 0.32244,0 0.57891,-0.126647 0.76623,-0.380295 0.18733,-0.253647 0.28117,-0.60078 0.28117,-1.041752 0,-0.432859 -0.0938,-0.77717 -0.28117,-1.030817 -0.18732,-0.25647 -0.44379,-0.385939 -0.76623,-0.385939 z m 0,-0.512586 c 0.52493,0 0.93839,0.170744 1.24037,0.512586 0.30021,0.341842 0.4519,0.814564 0.4519,1.416756 0,0.606072 -0.15169,1.080205 -0.4519,1.422047 -0.30198,0.341841 -0.71544,0.512586 -1.24037,0.512586 -0.52917,0 -0.94544,-0.170745 -1.24566,-0.512586 -0.29774,-0.341842 -0.44662,-0.815975 -0.44662,-1.422047 0,-0.602192 0.14888,-1.074914 0.44662,-1.416756 0.30022,-0.341842 0.71649,-0.512586 1.24566,-0.512586 z" />
        <path
           inkscape:connector-curvature="0"
           id="path4801"
           style="fill:#ffffff;fill-opacity:1;fill-rule:nonzero;stroke:none;stroke-width:0.35277775"
           d="m 112.25358,58.532827 h 0.64488 l 1.15217,3.09245 1.14653,-3.09245 h 0.64488 l -1.3836,3.681942 h -0.82126 z" />
        <path
           inkscape:connector-curvature="0"
           id="path4803"
           style="fill:#ffffff;fill-opacity:1;fill-rule:nonzero;stroke:none;stroke-width:0.35277775"
           d="m 119.82737,60.219458 v 0.297744 h -2.78377 c 0.0247,0.416278 0.15028,0.733073 0.37465,0.953559 0.22331,0.217664 0.53763,0.325261 0.94262,0.325261 0.23178,0 0.45473,-0.02752 0.67275,-0.08255 0.22048,-0.05821 0.43674,-0.144992 0.65017,-0.259292 v 0.573264 c -0.21766,0.09243 -0.43956,0.162631 -0.66675,0.20955 -0.22895,0.04692 -0.46038,0.07161 -0.69462,0.07161 -0.58843,0 -1.05551,-0.170745 -1.40018,-0.512586 -0.34184,-0.341842 -0.51258,-0.804686 -0.51258,-1.389239 0,-0.602192 0.16263,-1.080206 0.49071,-1.432983 0.32632,-0.352778 0.76623,-0.529167 1.31727,-0.529167 0.49601,0 0.88759,0.159808 1.17405,0.479425 0.28928,0.317147 0.43568,0.748242 0.43568,1.2954 z m -0.60643,-0.176389 c -0.004,-0.330553 -0.0981,-0.592667 -0.28116,-0.788106 -0.18062,-0.198613 -0.4191,-0.297744 -0.71649,-0.297744 -0.33902,0 -0.60925,0.09631 -0.81033,0.286808 -0.2025,0.191206 -0.31856,0.460023 -0.34749,0.804686 z" />
        <path
           inkscape:connector-curvature="0"
           id="path4805"
           style="fill:#ffffff;fill-opacity:1;fill-rule:nonzero;stroke:none;stroke-width:0.35277775"
           d="m 122.95122,59.095155 c -0.066,-0.03598 -0.14041,-0.0635 -0.22049,-0.0829 -0.0811,-0.02187 -0.16933,-0.03281 -0.26458,-0.03281 -0.34185,0 -0.60502,0.112889 -0.78811,0.336197 -0.18485,0.224367 -0.27587,0.544336 -0.27587,0.95885 v 1.940278 h -0.60607 v -3.681942 h 0.60607 v 0.573264 c 0.12841,-0.223308 0.29351,-0.388761 0.49636,-0.496005 0.20531,-0.11042 0.45332,-0.165453 0.74401,-0.165453 0.0441,0 0.0896,0.0042 0.13793,0.01093 0.0508,0.0042 0.10725,0.01094 0.17075,0.02222 z" />
        <path
           inkscape:connector-curvature="0"
           id="path4807"
           style="fill:#ffffff;fill-opacity:1;fill-rule:nonzero;stroke:none;stroke-width:0.35277775"
           d="m 125.26897,60.362686 c -0.48895,0 -0.82938,0.05786 -1.01953,0.171097 -0.18768,0.110067 -0.28116,0.300214 -0.28116,0.567619 0,0.217664 0.0688,0.388761 0.20955,0.512586 0.14322,0.125589 0.33619,0.187678 0.57855,0.187678 0.33761,0 0.60784,-0.117122 0.81033,-0.352778 0.20108,-0.238477 0.30304,-0.554213 0.30304,-0.948266 v -0.137936 z m 1.2072,-0.248003 v 2.100086 h -0.60642 v -0.556683 c -0.14041,0.220486 -0.31256,0.384527 -0.51788,0.490714 -0.20673,0.106186 -0.45755,0.159808 -0.7553,0.159808 -0.37465,0 -0.67522,-0.104775 -0.89852,-0.314325 -0.22472,-0.21202 -0.3362,-0.497417 -0.3362,-0.854075 0,-0.410986 0.13794,-0.722136 0.41345,-0.931686 0.27835,-0.212372 0.69463,-0.319617 1.24566,-0.319617 h 0.84879 v -0.06068 c 0,-0.275519 -0.0921,-0.487891 -0.27552,-0.639586 -0.1845,-0.154164 -0.44098,-0.231422 -0.77153,-0.231422 -0.20955,0 -0.41627,0.02611 -0.61736,0.07726 -0.19861,0.04798 -0.39017,0.123825 -0.57326,0.225778 V 58.69828 c 0.22331,-0.08431 0.43815,-0.14605 0.64487,-0.187678 0.20955,-0.0441 0.41346,-0.06597 0.61172,-0.06597 0.53199,0 0.92887,0.137936 1.19063,0.413456 0.26458,0.275519 0.39687,0.694619 0.39687,1.256594 z" />
        <path
           inkscape:connector-curvature="0"
           id="path4809"
           style="fill:#ffffff;fill-opacity:1;fill-rule:nonzero;stroke:none;stroke-width:0.35277775"
           d="m 130.14859,60.329877 c 0,-0.437091 -0.0921,-0.777169 -0.27552,-1.01988 -0.18062,-0.242359 -0.43251,-0.363714 -0.7553,-0.363714 -0.32773,0 -0.58138,0.121355 -0.76059,0.363714 -0.18027,0.242711 -0.26987,0.582789 -0.26987,1.01988 0,0.43815 0.0896,0.77717 0.26987,1.019528 0.17921,0.239889 0.43286,0.358422 0.76059,0.358422 0.32279,0 0.57468,-0.118533 0.7553,-0.358422 0.18344,-0.242358 0.27552,-0.581378 0.27552,-1.019528 z m 0.60642,1.427692 c 0,0.628297 -0.1404,1.093964 -0.41874,1.399822 -0.27976,0.3048 -0.70556,0.457553 -1.27882,0.457553 -0.21379,0 -0.41628,-0.01658 -0.60643,-0.04939 -0.18732,-0.03034 -0.36936,-0.07726 -0.54574,-0.143581 V 62.83213 c 0.17638,0.09525 0.34995,0.165453 0.52352,0.20955 0.17639,0.04692 0.35419,0.07161 0.53481,0.07161 0.39687,0 0.69179,-0.103364 0.88759,-0.308681 0.19826,-0.206727 0.29739,-0.517877 0.29739,-0.936977 V 61.5646 c -0.12524,0.220486 -0.28505,0.384527 -0.47943,0.490361 -0.19579,0.107597 -0.42862,0.159808 -0.69991,0.159808 -0.45226,0 -0.8188,-0.170744 -1.09714,-0.512586 -0.27552,-0.344311 -0.41345,-0.801864 -0.41345,-1.372306 0,-0.569383 0.13793,-1.025525 0.41345,-1.367014 0.27834,-0.344663 0.64488,-0.51823 1.09714,-0.51823 0.27129,0 0.50412,0.05362 0.69991,0.159808 0.19438,0.107597 0.35419,0.268817 0.47943,0.48507 v -0.556684 h 0.60642 z" />
        <path
           inkscape:connector-curvature="0"
           id="path4811"
           style="fill:#ffffff;fill-opacity:1;fill-rule:nonzero;stroke:none;stroke-width:0.35277775"
           d="m 135.15239,60.219458 v 0.297744 h -2.78377 c 0.0251,0.416278 0.15028,0.733073 0.375,0.953559 0.22331,0.217664 0.53728,0.325261 0.94262,0.325261 0.23142,0 0.45473,-0.02752 0.6724,-0.08255 0.22048,-0.05821 0.43674,-0.144992 0.65052,-0.259292 v 0.573264 c -0.21766,0.09243 -0.43956,0.162631 -0.6671,0.20955 -0.2286,0.04692 -0.46038,0.07161 -0.69462,0.07161 -0.58844,0 -1.05551,-0.170745 -1.39982,-0.512586 -0.34184,-0.341842 -0.51294,-0.804686 -0.51294,-1.389239 0,-0.602192 0.16263,-1.080206 0.49071,-1.432983 0.32667,-0.352778 0.76624,-0.529167 1.31727,-0.529167 0.49636,0 0.88759,0.159808 1.1744,0.479425 0.28928,0.317147 0.43533,0.748242 0.43533,1.2954 z m -0.60643,-0.176389 c -0.004,-0.330553 -0.0977,-0.592667 -0.28116,-0.788106 -0.18027,-0.198613 -0.41875,-0.297744 -0.71649,-0.297744 -0.33902,0 -0.6089,0.09631 -0.81033,0.286808 -0.2025,0.191206 -0.31821,0.460023 -0.34714,0.804686 z" />
        <path
           inkscape:connector-curvature="0"
           id="path4813"
           style="fill:#010101;fill-opacity:0.3;fill-rule:nonzero;stroke:none;stroke-width:0.35277775"
           d="m 142.81014,62.728766 v -0.606072 c 0.16827,0.07691 0.3376,0.137583 0.50694,0.181681 0.17251,0.04127 0.33902,0.06068 0.50165,0.06068 0.44097,0 0.77717,-0.14605 1.00894,-0.440973 0.23142,-0.297744 0.36372,-0.745419 0.39688,-1.344788 -0.12947,0.187325 -0.29069,0.333375 -0.48507,0.435327 -0.19579,0.09913 -0.41205,0.148873 -0.65053,0.148873 -0.4893,0 -0.8763,-0.148873 -1.1631,-0.446617 -0.28646,-0.297392 -0.43004,-0.702733 -0.43004,-1.218142 0,-0.503061 0.14887,-0.906639 0.44662,-1.212497 0.29774,-0.3048 0.69462,-0.457553 1.19062,-0.457553 0.56903,0 1.0033,0.219075 1.30069,0.655814 0.30057,0.43427 0.45226,1.063978 0.45226,1.890889 0,0.775758 -0.18485,1.394531 -0.55139,1.857375 -0.36795,0.460375 -0.86254,0.688975 -1.48272,0.688975 -0.16934,0 -0.34043,-0.01658 -0.51259,-0.04939 -0.16933,-0.03316 -0.34572,-0.08008 -0.52916,-0.143582 z m 1.32291,-2.083505 c 0.29775,0 0.53199,-0.100542 0.70556,-0.303036 0.17639,-0.205317 0.26458,-0.486481 0.26458,-0.843492 0,-0.352778 -0.0882,-0.629708 -0.26458,-0.832203 -0.17357,-0.205317 -0.40781,-0.30868 -0.70556,-0.30868 -0.29774,0 -0.53481,0.103363 -0.7112,0.30868 -0.17356,0.202495 -0.25894,0.479425 -0.25894,0.832203 0,0.357011 0.0854,0.638175 0.25894,0.843492 0.17639,0.202494 0.41346,0.303036 0.7112,0.303036 z" />
        <path
           inkscape:connector-curvature="0"
           id="path4815"
           style="fill:#010101;fill-opacity:0.3;fill-rule:nonzero;stroke:none;stroke-width:0.35277775"
           d="m 148.49868,60.496388 c -0.31292,0 -0.56092,0.08537 -0.74401,0.253648 -0.18062,0.169686 -0.27023,0.401108 -0.27023,0.694619 0,0.297745 0.0896,0.531989 0.27023,0.699911 0.18309,0.169686 0.43109,0.253647 0.74401,0.253647 0.31573,0 0.56373,-0.08396 0.74401,-0.253647 0.18344,-0.172155 0.27587,-0.404989 0.27587,-0.699911 0,-0.293511 -0.091,-0.524933 -0.27023,-0.694619 -0.18062,-0.168275 -0.43004,-0.253648 -0.74965,-0.253648 z m -0.66146,-0.281163 c -0.28681,-0.06879 -0.50977,-0.201084 -0.66711,-0.396875 -0.15839,-0.198262 -0.23706,-0.436739 -0.23706,-0.716492 0,-0.392642 0.13935,-0.702733 0.4191,-0.931333 0.27834,-0.227542 0.66146,-0.341842 1.14653,-0.341842 0.48789,0 0.87242,0.1143 1.15217,0.341842 0.27834,0.2286 0.41875,0.538691 0.41875,0.931333 0,0.279753 -0.0797,0.51823 -0.23707,0.716492 -0.1584,0.195791 -0.37888,0.328083 -0.66146,0.396875 0.31962,0.07444 0.56797,0.219427 0.74436,0.43568 0.17886,0.217664 0.26988,0.482247 0.26988,0.79375 0,0.478014 -0.14605,0.843139 -0.43533,1.096786 -0.29069,0.253647 -0.70838,0.380295 -1.2513,0.380295 -0.54011,0 -0.95638,-0.126648 -1.24566,-0.380295 -0.29069,-0.253647 -0.43568,-0.618772 -0.43568,-1.096786 0,-0.311503 0.0896,-0.576086 0.27022,-0.79375 0.17922,-0.216253 0.43004,-0.361244 0.74966,-0.43568 z m -0.24271,-1.052689 c 0,0.25788 0.0787,0.457552 0.23706,0.60078 0.15734,0.140759 0.3803,0.20955 0.66711,0.20955 0.28645,0 0.50976,-0.06879 0.67239,-0.20955 0.16122,-0.143228 0.24271,-0.3429 0.24271,-0.60078 0,-0.253648 -0.0815,-0.449086 -0.24271,-0.589845 -0.16263,-0.143228 -0.38594,-0.214841 -0.67239,-0.214841 -0.28681,0 -0.50977,0.07161 -0.66711,0.214841 -0.15839,0.140759 -0.23706,0.336197 -0.23706,0.589845 z" />
        <path
           inkscape:connector-curvature="0"
           id="path4817"
           style="fill:#010101;fill-opacity:0.3;fill-rule:nonzero;stroke:none;stroke-width:0.35277775"
           d="m 155.5433,60.667486 c -0.18768,0 -0.3362,0.08114 -0.44662,0.242358 -0.11007,0.162631 -0.16545,0.388761 -0.16545,0.678039 0,0.286808 0.0554,0.512586 0.16545,0.678039 0.11042,0.16263 0.25894,0.242358 0.44662,0.242358 0.18732,0 0.33337,-0.07973 0.44097,-0.242358 0.11007,-0.165453 0.1651,-0.391231 0.1651,-0.678039 0,-0.286456 -0.055,-0.509764 -0.1651,-0.672395 -0.1076,-0.165452 -0.25365,-0.248002 -0.44097,-0.248002 z m 0,-0.4191 c 0.34854,0 0.62406,0.121355 0.82655,0.363714 0.20567,0.239888 0.30869,0.56515 0.30869,0.975783 0,0.412044 -0.10302,0.737305 -0.30869,0.975783 -0.20637,0.239536 -0.48224,0.35807 -0.82655,0.35807 -0.34996,0 -0.62724,-0.118534 -0.83256,-0.35807 -0.20249,-0.238478 -0.30304,-0.563739 -0.30304,-0.975783 0,-0.410633 0.10196,-0.735895 0.30869,-0.975783 0.20531,-0.242359 0.48083,-0.363714 0.82691,-0.363714 z m -3.3902,-2.000956 c -0.19156,0 -0.34149,0.0829 -0.45191,0.248003 -0.10759,0.16263 -0.1598,0.384528 -0.1598,0.667103 0,0.290689 0.0522,0.516819 0.1598,0.678039 0.11042,0.16263 0.26035,0.242358 0.45191,0.242358 0.19015,0 0.33902,-0.07973 0.44662,-0.242358 0.11007,-0.16122 0.16545,-0.38735 0.16545,-0.678039 0,-0.282575 -0.0554,-0.504473 -0.16545,-0.667103 -0.11042,-0.1651 -0.25894,-0.248003 -0.44662,-0.248003 z m 2.9658,-0.418747 h 0.52917 l -3.07058,5.093053 h -0.52916 z m -2.9658,0 c 0.34466,0 0.62019,0.121355 0.82691,0.363714 0.20532,0.239889 0.30868,0.562328 0.30868,0.970139 0,0.416277 -0.10336,0.74295 -0.30868,0.981075 -0.20249,0.239889 -0.47801,0.358422 -0.82691,0.358422 -0.34995,0 -0.62689,-0.118533 -0.8322,-0.358422 -0.2025,-0.242359 -0.30304,-0.569031 -0.30304,-0.981075 0,-0.407811 0.10054,-0.73025 0.30304,-0.970139 0.20531,-0.242359 0.48225,-0.363714 0.8322,-0.363714 z" />
        <path
           inkscape:connector-curvature="0"
           id="path4819"
           style="fill:#ffffff;fill-opacity:1;fill-rule:nonzero;stroke:none;stroke-width:0.35277775"
           d="m 142.81014,62.115638 v -0.606425 c 0.16827,0.07726 0.3376,0.137937 0.50694,0.182034 0.17251,0.04128 0.33902,0.06068 0.50165,0.06068 0.44097,0 0.77717,-0.14605 1.00894,-0.440973 0.23142,-0.297744 0.36372,-0.745419 0.39688,-1.345141 -0.12947,0.187677 -0.29069,0.333727 -0.48507,0.43568 -0.19579,0.09913 -0.41205,0.148872 -0.65053,0.148872 -0.4893,0 -0.8763,-0.148872 -1.1631,-0.446616 -0.28646,-0.297745 -0.43004,-0.702734 -0.43004,-1.218142 0,-0.503061 0.14887,-0.906639 0.44662,-1.21285 0.29774,-0.304447 0.69462,-0.4572 1.19062,-0.4572 0.56903,0 1.0033,0.219075 1.30069,0.655814 0.30057,0.433917 0.45226,1.063978 0.45226,1.890536 0,0.776111 -0.18485,1.394531 -0.55139,1.857728 -0.36795,0.460375 -0.86254,0.688975 -1.48272,0.688975 -0.16934,0 -0.34043,-0.01658 -0.51259,-0.04974 -0.16933,-0.03281 -0.34572,-0.07973 -0.52916,-0.143228 z m 1.32291,-2.083505 c 0.29775,0 0.53199,-0.100542 0.70556,-0.303036 0.17639,-0.20567 0.26458,-0.486481 0.26458,-0.843492 0,-0.352778 -0.0882,-0.629708 -0.26458,-0.832203 -0.17357,-0.205669 -0.40781,-0.30868 -0.70556,-0.30868 -0.29774,0 -0.53481,0.103011 -0.7112,0.30868 -0.17356,0.202495 -0.25894,0.479425 -0.25894,0.832203 0,0.357011 0.0854,0.637822 0.25894,0.843492 0.17639,0.202494 0.41346,0.303036 0.7112,0.303036 z" />
        <path
           inkscape:connector-curvature="0"
           id="path4821"
           style="fill:#ffffff;fill-opacity:1;fill-rule:nonzero;stroke:none;stroke-width:0.35277775"
           d="m 148.49868,59.883261 c -0.31292,0 -0.56092,0.08537 -0.74401,0.253647 -0.18062,0.169333 -0.27023,0.401108 -0.27023,0.694619 0,0.297392 0.0896,0.531636 0.27023,0.699911 0.18309,0.169334 0.43109,0.253648 0.74401,0.253648 0.31573,0 0.56373,-0.08431 0.74401,-0.253648 0.18344,-0.172155 0.27587,-0.405341 0.27587,-0.699911 0,-0.293511 -0.091,-0.525286 -0.27023,-0.694619 -0.18062,-0.168275 -0.43004,-0.253647 -0.74965,-0.253647 z m -0.66146,-0.281164 c -0.28681,-0.06879 -0.50977,-0.201084 -0.66711,-0.396875 -0.15839,-0.198261 -0.23706,-0.436739 -0.23706,-0.716492 0,-0.392642 0.13935,-0.702733 0.4191,-0.931686 0.27834,-0.227189 0.66146,-0.341489 1.14653,-0.341489 0.48789,0 0.87242,0.1143 1.15217,0.341489 0.27834,0.228953 0.41875,0.539044 0.41875,0.931686 0,0.279753 -0.0797,0.518231 -0.23707,0.716492 -0.1584,0.195791 -0.37888,0.328083 -0.66146,0.396875 0.31962,0.07444 0.56797,0.219075 0.74436,0.43568 0.17886,0.217664 0.26988,0.482248 0.26988,0.79375 0,0.478014 -0.14605,0.843139 -0.43533,1.096786 -0.29069,0.253648 -0.70838,0.380295 -1.2513,0.380295 -0.54011,0 -0.95638,-0.126647 -1.24566,-0.380295 -0.29069,-0.253647 -0.43568,-0.618772 -0.43568,-1.096786 0,-0.311502 0.0896,-0.576086 0.27022,-0.79375 0.17922,-0.216605 0.43004,-0.361244 0.74966,-0.43568 z m -0.24271,-1.052689 c 0,0.257528 0.0787,0.457553 0.23706,0.60078 0.15734,0.140406 0.3803,0.20955 0.66711,0.20955 0.28645,0 0.50976,-0.06914 0.67239,-0.20955 0.16122,-0.143227 0.24271,-0.343252 0.24271,-0.60078 0,-0.253647 -0.0815,-0.449439 -0.24271,-0.589845 -0.16263,-0.143227 -0.38594,-0.214841 -0.67239,-0.214841 -0.28681,0 -0.50977,0.07161 -0.66711,0.214841 -0.15839,0.140406 -0.23706,0.336198 -0.23706,0.589845 z" />
        <path
           inkscape:connector-curvature="0"
           id="path4823"
           style="fill:#ffffff;fill-opacity:1;fill-rule:nonzero;stroke:none;stroke-width:0.35277775"
           d="m 155.5433,60.054005 c -0.18768,0 -0.3362,0.08149 -0.44662,0.242711 -0.11007,0.162631 -0.16545,0.388409 -0.16545,0.678039 0,0.286456 0.0554,0.512586 0.16545,0.678039 0.11042,0.162631 0.25894,0.242358 0.44662,0.242358 0.18732,0 0.33337,-0.07973 0.44097,-0.242358 0.11007,-0.165453 0.1651,-0.391583 0.1651,-0.678039 0,-0.286808 -0.055,-0.510117 -0.1651,-0.672394 -0.1076,-0.165453 -0.25365,-0.248356 -0.44097,-0.248356 z m 0,-0.418747 c 0.34854,0 0.62406,0.121355 0.82655,0.363714 0.20567,0.239889 0.30869,0.56515 0.30869,0.975783 0,0.412045 -0.10302,0.737306 -0.30869,0.975431 -0.20637,0.239889 -0.48224,0.358422 -0.82655,0.358422 -0.34996,0 -0.62724,-0.118533 -0.83256,-0.358422 -0.20249,-0.238125 -0.30304,-0.563386 -0.30304,-0.975431 0,-0.410633 0.10196,-0.735894 0.30869,-0.975783 0.20531,-0.242359 0.48083,-0.363714 0.82691,-0.363714 z m -3.3902,-2.000956 c -0.19156,0 -0.34149,0.08255 -0.45191,0.248003 -0.10759,0.162631 -0.1598,0.384528 -0.1598,0.667103 0,0.290689 0.0522,0.516819 0.1598,0.678039 0.11042,0.16263 0.26035,0.242358 0.45191,0.242358 0.19015,0 0.33902,-0.07973 0.44662,-0.242358 0.11007,-0.16122 0.16545,-0.38735 0.16545,-0.678039 0,-0.282575 -0.0554,-0.504472 -0.16545,-0.667103 -0.11042,-0.165453 -0.25894,-0.248003 -0.44662,-0.248003 z m 2.9658,-0.418747 h 0.52917 l -3.07058,5.093053 h -0.52916 z m -2.9658,0 c 0.34466,0 0.62019,0.121003 0.82691,0.363714 0.20532,0.239536 0.30868,0.562328 0.30868,0.970139 0,0.415925 -0.10336,0.742597 -0.30868,0.981075 -0.20249,0.239889 -0.47801,0.358422 -0.82691,0.358422 -0.34995,0 -0.62689,-0.118533 -0.8322,-0.358422 -0.2025,-0.242358 -0.30304,-0.569031 -0.30304,-0.981075 0,-0.407811 0.10054,-0.730603 0.30304,-0.970139 0.20531,-0.242711 0.48225,-0.363714 0.8322,-0.363714 z" />
        <path
           inkscape:connector-curvature="0"
           id="path11337"
           style="fill:#1b1817;fill-opacity:1;fill-rule:evenodd;stroke:none;stroke-width:0.35277775"
           d="m 129.82086,72.67851 c -5.62257,0 -10.18117,4.558242 -10.18117,10.180814 0,4.499326 2.91747,8.314973 6.96207,9.661525 0.50835,0.09349 0.69568,-0.220486 0.69568,-0.490715 0,-0.242359 -0.01,-1.044575 -0.0138,-1.894769 -2.83316,0.61595 -3.4297,-1.20156 -3.4297,-1.20156 -0.4632,-1.176867 -1.13136,-1.489781 -1.13136,-1.489781 -0.92358,-0.631119 0.0702,-0.618774 0.0702,-0.618774 1.02235,0.07162 1.55998,1.050222 1.55998,1.050222 0.90805,1.55575 2.38266,1.1049 2.96263,0.84596 0.0924,-0.658635 0.3556,-1.107723 0.64629,-1.361369 -2.26131,-0.257881 -4.63832,-1.131358 -4.63832,-5.032729 0,-1.110544 0.39828,-2.018946 1.04986,-2.732616 -0.10618,-0.256469 -0.45473,-1.291166 0.0981,-2.694164 0,0 0.85548,-0.272697 2.79999,1.044575 0.81316,-0.225777 1.68416,-0.339019 2.54953,-0.3429 0.86536,0.0039 1.73637,0.117123 2.54917,0.3429 1.94451,-1.317272 2.79753,-1.044575 2.79753,-1.044575 0.55386,1.402998 0.20531,2.437695 0.10054,2.694164 0.65193,0.71367 1.0474,1.622072 1.0474,2.732616 0,3.910896 -2.38125,4.772025 -4.64961,5.024263 0.36512,0.315735 0.69179,0.935918 0.69179,1.885243 0,1.361369 -0.0123,2.458509 -0.0123,2.793294 0,0.27164 0.18309,0.588433 0.69991,0.489304 4.04318,-1.347964 6.95642,-5.162198 6.95642,-9.660114 0,-5.622572 -4.55859,-10.180814 -10.18081,-10.180814" />
        <path
           inkscape:connector-curvature="0"
           id="path11339"
           style="fill:#000000;fill-opacity:1;fill-rule:nonzero;stroke:none;stroke-width:0.35277775"
           d="m 105.125,95.90928 v 0.53481 c -0.16263,-0.08008 -0.32949,-0.140758 -0.50165,-0.182033 -0.17356,-0.0441 -0.35277,-0.06597 -0.5401,-0.06597 -0.28399,0 -0.49636,0.0441 -0.63959,0.132292 -0.1404,0.08819 -0.20955,0.219075 -0.20955,0.391229 0,0.132291 0.0497,0.237066 0.14888,0.314325 0.10195,0.07444 0.30585,0.14605 0.61206,0.214841 l 0.19827,0.03845 c 0.40393,0.08819 0.69038,0.21237 0.86007,0.369358 0.17215,0.158396 0.25894,0.378884 0.25894,0.661459 0,0.32385 -0.12947,0.578908 -0.38594,0.766233 -0.25365,0.187325 -0.6036,0.281162 -1.0474,0.281162 -0.18732,0 -0.38276,-0.01939 -0.5842,-0.05503 -0.20249,-0.03316 -0.41592,-0.08537 -0.63923,-0.159809 v -0.589843 c 0.21202,0.110067 0.42016,0.192968 0.62265,0.248002 0.20532,0.05503 0.40958,0.08255 0.61207,0.08255 0.26741,0 0.47413,-0.04551 0.61736,-0.137584 0.14605,-0.09102 0.22049,-0.221895 0.22049,-0.391583 0,-0.154162 -0.054,-0.271285 -0.15981,-0.352777 -0.10337,-0.08396 -0.33091,-0.1651 -0.68368,-0.242358 l -0.19826,-0.0441 c -0.35702,-0.07726 -0.6149,-0.190146 -0.77188,-0.341842 -0.15417,-0.154162 -0.23142,-0.366535 -0.23142,-0.639585 0,-0.32244 0.11571,-0.57291 0.34713,-0.7493 0.23142,-0.17921 0.5595,-0.270227 0.98672,-0.270227 0.20955,0 0.40534,0.01659 0.58984,0.04939 0.18733,0.03034 0.35983,0.07585 0.51823,0.137938 z" />
        <path
           inkscape:connector-curvature="0"
           id="path11341"
           style="fill:#000000;fill-opacity:1;fill-rule:nonzero;stroke:none;stroke-width:0.35277775"
           d="m 106.2038,94.454072 h 0.57326 v 2.849737 l 1.70321,-1.499304 h 0.72778 l -1.84115,1.626304 1.91841,1.84644 h -0.74436 l -1.76389,-1.697567 v 1.697567 h -0.57326 z" />
        <path
           inkscape:connector-curvature="0"
           id="path11343"
           style="fill:#000000;fill-opacity:1;fill-rule:nonzero;stroke:none;stroke-width:0.35277775"
           d="m 111.03121,96.207024 c -0.30868,0 -0.55139,0.119943 -0.72778,0.358068 -0.17639,0.235657 -0.26459,0.56233 -0.26459,0.98143 0,0.415925 0.0882,0.742595 0.26459,0.981075 0.17639,0.239887 0.4191,0.35842 0.72778,0.35842 0.30057,0 0.5401,-0.118533 0.71649,-0.35842 0.17921,-0.242359 0.27023,-0.569032 0.27023,-0.981075 0,-0.410634 -0.091,-0.735897 -0.27023,-0.975784 -0.17639,-0.242358 -0.41592,-0.363714 -0.71649,-0.363714 z m 0,-0.485069 c 0.496,0 0.88477,0.162629 1.1684,0.485069 0.28257,0.319616 0.42474,0.766233 0.42474,1.339498 0,0.566208 -0.14217,1.011412 -0.42474,1.333852 -0.28363,0.32385 -0.6724,0.485068 -1.1684,0.485068 -0.50024,0 -0.89147,-0.161218 -1.17405,-0.485068 -0.27975,-0.32244 -0.4191,-0.767644 -0.4191,-1.333852 0,-0.573265 0.13935,-1.019882 0.4191,-1.339498 0.28258,-0.32244 0.67381,-0.485069 1.17405,-0.485069 z" />
        <path
           inkscape:connector-curvature="0"
           id="path11345"
           style="fill:#000000;fill-opacity:1;fill-rule:nonzero;stroke:none;stroke-width:0.35277775"
           d="m 115.57993,96.339315 c -0.066,-0.03598 -0.13759,-0.0635 -0.21485,-0.08255 -0.0744,-0.01799 -0.15698,-0.02787 -0.248,-0.02787 -0.31962,0 -0.56656,0.104775 -0.73872,0.314325 -0.17356,0.20955 -0.25893,0.511175 -0.25893,0.903816 v 1.830211 h -0.57327 v -3.472744 h 0.57327 v 0.540454 c 0.11712,-0.212371 0.27128,-0.369359 0.46284,-0.468842 0.19438,-0.101952 0.43003,-0.154162 0.70556,-0.154162 0.036,0 0.0787,0.0042 0.127,0.01093 0.0469,0.0042 0.10054,0.0095 0.1598,0.01659 z" />
        <path
           inkscape:connector-curvature="0"
           id="path11347"
           style="fill:#000000;fill-opacity:1;fill-rule:nonzero;stroke:none;stroke-width:0.35277775"
           d="m 118.54573,95.936797 v 0.53481 c -0.16263,-0.08819 -0.32385,-0.154517 -0.48507,-0.198615 -0.16263,-0.04409 -0.32526,-0.06597 -0.49072,-0.06597 -0.37218,0 -0.66004,0.118533 -0.86536,0.352776 -0.20249,0.231424 -0.30304,0.560917 -0.30304,0.986722 0,0.422978 0.10055,0.752475 0.30304,0.986718 0.20532,0.235657 0.49318,0.352777 0.86536,0.352777 0.16546,0 0.32809,-0.02222 0.49072,-0.06632 0.16122,-0.04692 0.32244,-0.115713 0.48507,-0.203907 v 0.529167 c -0.1584,0.07444 -0.32385,0.129468 -0.49636,0.165452 -0.16933,0.03563 -0.34996,0.05503 -0.5401,0.05503 -0.52635,0 -0.94263,-0.162629 -1.25131,-0.490712 -0.30586,-0.330555 -0.45755,-0.772938 -0.45755,-1.328208 0,-0.569384 0.15452,-1.015648 0.4632,-1.339498 0.3115,-0.32244 0.73872,-0.485069 1.27882,-0.485069 0.17639,0 0.34713,0.01939 0.51258,0.05503 0.16828,0.03316 0.33232,0.08678 0.49072,0.159809 z" />
        <path
           inkscape:connector-curvature="0"
           id="path11349"
           style="fill:#000000;fill-opacity:1;fill-rule:nonzero;stroke:none;stroke-width:0.35277775"
           d="m 122.4291,97.182455 v 2.094794 h -0.56797 v -2.078215 c 0,-0.326319 -0.0645,-0.570442 -0.19297,-0.733071 -0.12947,-0.165454 -0.32243,-0.248004 -0.57855,-0.248004 -0.30868,0 -0.55139,0.09913 -0.72778,0.297746 -0.17639,0.195792 -0.26459,0.461433 -0.26459,0.799394 v 1.96215 h -0.57326 v -4.823177 h 0.57326 v 1.890887 c 0.13512,-0.20955 0.29493,-0.365477 0.47978,-0.468842 0.18733,-0.101952 0.39935,-0.154162 0.63923,-0.154162 0.3997,0 0.70133,0.123825 0.90418,0.369358 0.20531,0.246592 0.30867,0.610304 0.30867,1.091142 z" />
        <path
           inkscape:connector-curvature="0"
           id="path11351"
           style="fill:#000000;fill-opacity:1;fill-rule:nonzero;stroke:none;stroke-width:0.35277775"
           d="m 123.28459,97.281938 h 1.67005 v 0.512586 h -1.67005 z" />
        <path
           inkscape:connector-curvature="0"
           id="path11353"
           style="fill:#000000;fill-opacity:1;fill-rule:nonzero;stroke:none;stroke-width:0.35277775"
           d="m 128.15328,96.333672 v -1.8796 h 0.57326 v 4.823177 h -0.57326 v -0.523524 c -0.11854,0.209199 -0.26882,0.363715 -0.45191,0.462847 -0.18486,0.09913 -0.40534,0.14887 -0.66146,0.14887 -0.4191,0 -0.76059,-0.166862 -1.02517,-0.50165 -0.26211,-0.333375 -0.39159,-0.772935 -0.39159,-1.31727 0,-0.547159 0.12948,-0.988132 0.39159,-1.322917 0.26458,-0.33373 0.60607,-0.50165 1.02517,-0.50165 0.25612,0 0.4766,0.04939 0.66146,0.14887 0.18309,0.09913 0.33337,0.253297 0.45191,0.462847 z m -1.94593,1.21285 c 0,0.418745 0.0857,0.748241 0.2593,0.986718 0.17215,0.239535 0.41063,0.358069 0.71649,0.358069 0.30056,0 0.53763,-0.118534 0.7112,-0.358069 0.17215,-0.238477 0.25894,-0.567973 0.25894,-0.986718 0,-0.421923 -0.0868,-0.752475 -0.25894,-0.992365 -0.17357,-0.238477 -0.41064,-0.358069 -0.7112,-0.358069 -0.30586,0 -0.54434,0.119592 -0.71649,0.358069 -0.17357,0.23989 -0.2593,0.570442 -0.2593,0.992365 z" />
        <path
           inkscape:connector-curvature="0"
           id="path11355"
           style="fill:#000000;fill-opacity:1;fill-rule:nonzero;stroke:none;stroke-width:0.35277775"
           d="m 132.86745,97.397649 v 0.281164 h -2.61832 c 0.0222,0.394052 0.13935,0.693209 0.35278,0.898525 0.21237,0.206727 0.5087,0.308679 0.88759,0.308679 0.21625,0 0.42721,-0.02787 0.63394,-0.0829 0.20531,-0.05503 0.40922,-0.135115 0.61171,-0.242358 v 0.540102 c -0.20249,0.0882 -0.41204,0.154516 -0.62829,0.198263 -0.21343,0.04445 -0.43251,0.06632 -0.65582,0.06632 -0.55139,0 -0.98954,-0.159808 -1.31198,-0.479425 -0.32385,-0.322437 -0.48507,-0.760942 -0.48507,-1.311979 0,-0.569031 0.1517,-1.019881 0.45756,-1.350433 0.30868,-0.33373 0.72213,-0.50165 1.24036,-0.50165 0.4699,0 0.83891,0.151694 1.10773,0.451908 0.27164,0.297744 0.40781,0.705554 0.40781,1.223786 z m -0.56762,-0.165452 c -0.004,-0.311505 -0.0924,-0.559507 -0.26459,-0.744009 -0.16933,-0.187679 -0.39405,-0.281164 -0.67239,-0.281164 -0.31997,0 -0.57609,0.09102 -0.76623,0.269875 -0.19156,0.176389 -0.30198,0.428625 -0.33091,0.755298 z" />
        <path
           inkscape:connector-curvature="0"
           id="path11357"
           style="fill:#000000;fill-opacity:1;fill-rule:nonzero;stroke:none;stroke-width:0.35277775"
           d="m 133.3952,95.804505 h 0.60643 l 1.08585,2.91606 1.08585,-2.91606 h 0.60113 l -1.30105,3.472744 h -0.77152 z" />
        <path
           inkscape:connector-curvature="0"
           id="path11359"
           style="fill:#000000;fill-opacity:1;fill-rule:nonzero;stroke:none;stroke-width:0.35277775"
           d="m 138.58104,94.64704 h 0.52352 l -1.60937,5.220052 h -0.52917 z" />
        <path
           inkscape:connector-curvature="0"
           id="path11361"
           style="fill:#000000;fill-opacity:1;fill-rule:nonzero;stroke:none;stroke-width:0.35277775"
           d="m 141.92255,95.90928 v 0.53481 c -0.16264,-0.08008 -0.32915,-0.140758 -0.50165,-0.182033 -0.17357,-0.0441 -0.35278,-0.06597 -0.54011,-0.06597 -0.28363,0 -0.496,0.0441 -0.63923,0.132292 -0.14076,0.08819 -0.20955,0.219075 -0.20955,0.391229 0,0.132291 0.0497,0.237066 0.14887,0.314325 0.10196,0.07444 0.30586,0.14605 0.61172,0.214841 l 0.19861,0.03845 c 0.40358,0.08819 0.69039,0.21237 0.85972,0.369358 0.17251,0.158396 0.25929,0.378884 0.25929,0.661459 0,0.32385 -0.12982,0.578908 -0.38593,0.766233 -0.25365,0.187325 -0.60361,0.281162 -1.0474,0.281162 -0.18733,0 -0.38312,-0.01939 -0.5842,-0.05503 -0.2025,-0.03316 -0.41628,-0.08537 -0.63959,-0.159809 v -0.589843 c 0.21237,0.110067 0.42051,0.192968 0.62301,0.248002 0.20531,0.05503 0.40922,0.08255 0.61171,0.08255 0.26741,0 0.47414,-0.04551 0.61737,-0.137584 0.14605,-0.09102 0.22048,-0.221895 0.22048,-0.391583 0,-0.154162 -0.0536,-0.271285 -0.15981,-0.352777 -0.10336,-0.08396 -0.33055,-0.1651 -0.68333,-0.242358 l -0.19861,-0.0441 c -0.35701,-0.07726 -0.61454,-0.190146 -0.77153,-0.341842 -0.15451,-0.154162 -0.23177,-0.366535 -0.23177,-0.639585 0,-0.32244 0.11606,-0.57291 0.34748,-0.7493 0.23143,-0.17921 0.55951,-0.270227 0.98672,-0.270227 0.2092,0 0.40499,0.01659 0.58985,0.04939 0.18732,0.03034 0.35948,0.07585 0.51788,0.137938 z" />
        <path
           inkscape:connector-curvature="0"
           id="path11363"
           style="fill:#000000;fill-opacity:1;fill-rule:nonzero;stroke:none;stroke-width:0.35277775"
           d="m 143.00169,94.454072 h 0.57327 v 2.849737 l 1.70321,-1.499304 h 0.72778 l -1.84115,1.626304 1.91805,1.84644 h -0.744 l -1.76389,-1.697567 v 1.697567 h -0.57327 z" />
        <path
           inkscape:connector-curvature="0"
           id="path11365"
           style="fill:#000000;fill-opacity:1;fill-rule:nonzero;stroke:none;stroke-width:0.35277775"
           d="m 147.8291,96.207024 c -0.30868,0 -0.55139,0.119943 -0.72778,0.358068 -0.17638,0.235657 -0.26458,0.56233 -0.26458,0.98143 0,0.415925 0.0882,0.742595 0.26458,0.981075 0.17639,0.239887 0.4191,0.35842 0.72778,0.35842 0.30022,0 0.54011,-0.118533 0.7165,-0.35842 0.17921,-0.242359 0.26987,-0.569032 0.26987,-0.981075 0,-0.410634 -0.0907,-0.735897 -0.26987,-0.975784 -0.17639,-0.242358 -0.41628,-0.363714 -0.7165,-0.363714 z m 0,-0.485069 c 0.49601,0 0.88442,0.162629 1.1684,0.485069 0.28258,0.319616 0.4244,0.766233 0.4244,1.339498 0,0.566208 -0.14182,1.011412 -0.4244,1.333852 -0.28398,0.32385 -0.67239,0.485068 -1.1684,0.485068 -0.50024,0 -0.89182,-0.161218 -1.17439,-0.485068 -0.27976,-0.32244 -0.41875,-0.767644 -0.41875,-1.333852 0,-0.573265 0.13899,-1.019882 0.41875,-1.339498 0.28257,-0.32244 0.67415,-0.485069 1.17439,-0.485069 z" />
        <path
           inkscape:connector-curvature="0"
           id="path11367"
           style="fill:#000000;fill-opacity:1;fill-rule:nonzero;stroke:none;stroke-width:0.35277775"
           d="m 152.37782,96.339315 c -0.066,-0.03598 -0.13793,-0.0635 -0.21484,-0.08255 -0.0744,-0.01799 -0.15734,-0.02787 -0.248,-0.02787 -0.31997,0 -0.56657,0.104775 -0.73872,0.314325 -0.17357,0.20955 -0.25929,0.511175 -0.25929,0.903816 v 1.830211 h -0.57327 v -3.472744 h 0.57327 v 0.540454 c 0.11712,-0.212371 0.27164,-0.369359 0.46319,-0.468842 0.19439,-0.101952 0.43004,-0.154162 0.70556,-0.154162 0.0356,0 0.0787,0.0042 0.12665,0.01093 0.0469,0.0042 0.10054,0.0095 0.15981,0.01659 z" />
        <path
           inkscape:connector-curvature="0"
           id="path11369"
           style="fill:#000000;fill-opacity:1;fill-rule:nonzero;stroke:none;stroke-width:0.35277775"
           d="m 155.34327,95.936797 v 0.53481 c -0.16263,-0.08819 -0.32385,-0.154517 -0.48507,-0.198615 -0.16263,-0.04409 -0.32526,-0.06597 -0.49036,-0.06597 -0.37218,0 -0.66005,0.118533 -0.86536,0.352776 -0.20285,0.231424 -0.30339,0.560917 -0.30339,0.986722 0,0.422978 0.10054,0.752475 0.30339,0.986718 0.20531,0.235657 0.49318,0.352777 0.86536,0.352777 0.1651,0 0.32773,-0.02222 0.49036,-0.06632 0.16122,-0.04692 0.32244,-0.115713 0.48507,-0.203907 v 0.529167 c -0.1584,0.07444 -0.32385,0.129468 -0.49601,0.165452 -0.16933,0.03563 -0.34995,0.05503 -0.5401,0.05503 -0.52634,0 -0.94262,-0.162629 -1.2513,-0.490712 -0.30586,-0.330555 -0.45755,-0.772938 -0.45755,-1.328208 0,-0.569384 0.15451,-1.015648 0.46319,-1.339498 0.31115,-0.32244 0.73837,-0.485069 1.27882,-0.485069 0.17639,0 0.34714,0.01939 0.51259,0.05503 0.16792,0.03316 0.33196,0.08678 0.49036,0.159809 z" />
        <path
           inkscape:connector-curvature="0"
           id="path11371"
           style="fill:#000000;fill-opacity:1;fill-rule:nonzero;stroke:none;stroke-width:0.35277775"
           d="m 159.22665,97.182455 v 2.094794 h -0.56762 v -2.078215 c 0,-0.326319 -0.0649,-0.570442 -0.19297,-0.733071 -0.12947,-0.165454 -0.32244,-0.248004 -0.57891,-0.248004 -0.30868,0 -0.55104,0.09913 -0.72743,0.297746 -0.17638,0.195792 -0.26458,0.461433 -0.26458,0.799394 v 1.96215 h -0.57326 v -4.823177 h 0.57326 v 1.890887 c 0.13511,-0.20955 0.29492,-0.365477 0.47942,-0.468842 0.18733,-0.101952 0.3997,-0.154162 0.63959,-0.154162 0.39935,0 0.70132,0.123825 0.90382,0.369358 0.20532,0.246592 0.30868,0.610304 0.30868,1.091142 z" />
      </g>
    </g>
  </g>
</svg>
